<?xml version="1.0" encoding="UTF-8" standalone="no"?>
<svg
   fill="none"
   height="36.657276"
   viewBox="0 0 47.771431 36.657276"
   width="47.771431"
   version="1.1"
   id="svg1"
   sodipodi:docname="discord.svg"
   inkscape:version="1.3.2 (091e20e, 2023-11-25, custom)"
   xmlns:inkscape="http://www.inkscape.org/namespaces/inkscape"
   xmlns:sodipodi="http://sodipodi.sourceforge.net/DTD/sodipodi-0.dtd"
   xmlns="http://www.w3.org/2000/svg"
   xmlns:svg="http://www.w3.org/2000/svg">
  <defs
     id="defs1" />
  <sodipodi:namedview
     id="namedview1"
     pagecolor="#505050"
     bordercolor="#eeeeee"
     borderopacity="1"
     inkscape:showpageshadow="0"
     inkscape:pageopacity="0"
     inkscape:pagecheckerboard="0"
     inkscape:deskcolor="#505050"
     inkscape:zoom="8.827957"
     inkscape:cx="24.014616"
     inkscape:cy="18.294153"
     inkscape:window-width="1920"
     inkscape:window-height="1017"
     inkscape:window-x="1912"
     inkscape:window-y="-8"
     inkscape:window-maximized="1"
     inkscape:current-layer="svg1" />
  <path
     d="m 40.502169,3.0959638 c 5.3952,7.9886002 8.0596,16.9995002 7.0636,27.3732002 -0.0042,0.0439 -0.0269,0.0842 -0.0627,0.1106 -4.0857,3.0213 -8.0441,4.8549 -11.947,6.0708 -0.0304,0.0093 -0.063,0.0088 -0.093,-0.0014 -0.0301,-0.0103 -0.0563,-0.0297 -0.0748,-0.0557 -0.9017,-1.2635 -1.721,-2.5955 -2.4388,-3.9943 -0.0412,-0.0824 -0.0035,-0.1816 0.0812,-0.2141 1.3012,-0.4937 2.5385,-1.0854 3.7286,-1.786 0.0937,-0.0554 0.0997,-0.1907 0.0131,-0.2556 -0.2526,-0.1888 -0.5028,-0.3873 -0.7422,-0.5858 -0.0448,-0.0366 -0.1051,-0.0439 -0.1559,-0.0192 -7.7264,3.5932 -16.1903,3.5932 -24.008,0 -0.0508,-0.0228 -0.1111,-0.015 -0.1547,0.0211 -0.2388,0.1984 -0.4896,0.3951 -0.7398,0.5839 -0.0866,0.0649 -0.0795,0.2002 0.0149,0.2556 1.1901,0.6873 2.4274,1.2923 3.7267,1.7884 0.0842,0.0325 0.1242,0.1293 0.0824,0.2117 -0.7022,1.4006 -1.5215,2.7326 -2.4399,3.9961 -0.04,0.0511 -0.1057,0.0746 -0.1678,0.0553 -3.8843998,-1.2159 -7.8427998,-3.0495 -11.92849983,-6.0708 -0.034,-0.0264 -0.0585,-0.0685 -0.0621,-0.1124 -0.8324,-8.9731 0.86410003,-18.0586 7.05700003,-27.3732002 0.015,-0.0246 0.0377,-0.0439 0.0639,-0.0553 3.0472998,-1.4084 6.3117998,-2.44460003 9.7238998,-3.03630003 0.0621,-0.0096 0.1242,0.0192 0.1564,0.0746 0.4216,0.7517 0.9035,1.71570003 1.2296,2.50350003 3.5965,-0.5533 7.2493,-0.5533 10.9211,0 0.326,-0.771 0.7912,-1.75180003 1.211,-2.50350003 0.0149,-0.0275 0.0381,-0.0495 0.0662,-0.0629 0.0281,-0.0133999994 0.0597,-0.0175 0.0902,-0.0117 3.4139,0.5935 6.6785,1.62970003 9.7233,3.03630003 0.0268,0.0114 0.0489,0.0307 0.0621,0.0571 z m -20.2455,17.0609002 c 0.0376,-2.6527 -1.8828,-4.8477 -4.2934,-4.8477 -2.391,0 -4.2929,2.1758 -4.2929,4.8477 0,2.6713 1.9395,4.847 4.2929,4.847 2.3915,0 4.2934,-2.1757 4.2934,-4.847 z m 15.8732,0 c 0.0376,-2.6527 -1.8828,-4.8477 -4.2928,-4.8477 -2.3916,0 -4.2935,2.1758 -4.2935,4.8477 0,2.6713 1.9395,4.847 4.2935,4.847 2.41,0 4.2928,-2.1757 4.2928,-4.847 z"
     fill="#ffffff"
     id="path1" />
</svg>
